<svg id="splat3" xmlns="http://www.w3.org/2000/svg" viewBox="0 0 245.1 155.2"><title>splat</title><path d="M168.41,39.8c.62,2.11-.26,3.58-2.44,4.65L170,49.77h6.79l2.43,3.48c.49,4.07,1,7.91,1.47,12,1.58,2.23,3.16,4.9,6.71,6.29l-7.12,4.72c1.48,2.65,1.39,5.93,3.83,7.67.5,2.59.94,4.92,1.38,7.24l3.07,2-.2.58-2.71-.72-4.4,5.75c.34,3,.71,6.3,1.1,9.69l5,1.73v1.49h-5.27c-2.05,1.94-3,4-2.57,6.66l5.49,4.26-2.25,2.42L178,121.86h-5.55c-3.2,1.44-5.68,3.74-9.06,2.93-1.66,1.2-4,2-4.52,3.52a12.05,12.05,0,0,1-2.81,4.57l3,3c.7,2,1.11,3.19,1.56,4.5l-2.4,2.07c-1-2.92-2.54-4.83-5.3-4.77-1.78-1.18-1.41-4.6-5-3.62-1,2.42-4.88,2.34-5.76,5.83a15.67,15.67,0,0,0-3.74.07,13.19,13.19,0,0,0-3.11,1.6L124,143l-2,3.07c-.54-1.56-1-2.87-1.49-4.29l1.09-2.85c-3.42-.28-2.76,3.26-5,4l-1.25-.6c-5.15-.24-5.91,4.3-8.24,7.69-1.14-1.42-2.81-2.11-2.68-4.29,0-.6-1-1.22-1.42-1.88s-1.37-1.55-1.43-2.38c-.19-2.54-2-2.56-3.88-2.79l-1.64-4.77c-5,.66-7.19,1.5-10.17,4L84,130.81l-5.79-4.33-1.11,2.26-1.75-1.24,1.23-1.23-2.31-1.65,1.39-1.51L73,117.3l-.51.16V113.2c-2-1.12-1.75.68-2.39,1.72l-3.4-.71-1.08,2.06c-2.78-2.23-2.66-4.23-.78-6.4l-2.48-2.93,2.7-1.8-1.94-2.27L61.68,104v-2.73l2.74-1.57V93.32l-3.19-2.63c3.11-2.73-1.19-5,.41-7.23l-3.1-3.09,3.83-1.45V75.74l5.08-6.62-1.11-3.66c1.47-1,3.21-1.08,3.32-3.34.06-1,1.64-2,2.89-3.36l-.78-2.69c1.13-1.26,3.65-1.85,3.73-4.6l-1-1.22,3-2.36,3-.14-1.29-1.91,8.31-10c-1.09-3.2-2-7-5.33-9.78,1.17-2.08.62-4.79,3.19-6.46l2,1.59-2.08,2.41c.57,3.39,2.59,6,4.91,9.27.5.25,2,0,3.14,1.26,2,2.16,4.69,2.28,7.32.72a20.45,20.45,0,0,1,3.69-2,3.33,3.33,0,0,0,2.26-2.76c1.5-.43,3-.92,4.48-1.27s3.08-.21,4.7-.65a6.74,6.74,0,0,0,5.1-4.38l1.69,2.93c1.66-1.51,3.48,1.22,5.44-.73,1.19-1.19,3.88-.87,5.9-1.22l2.67-5.15c2.09,2-.48,3.31,0,5.82l7,8.44c3.64-.78,6.11,1.89,9.27,3.17l2.29-3,.41,4,5,2.55C165.81,38.57,165.81,38.57,168.41,39.8Z"/><path d="M139.7,7.24l-1,5.11.9,1.3a6.19,6.19,0,0,0-1,1.71,9.5,9.5,0,0,0-.05,2.4h-1.77c-.23-1.64-.86-3.25,1-4.56-1.65-2.3-1.21-4.8-1-7.83Z"/><path d="M56.69,118.14l-.18-3.78,2-2c-.09-1.36.65-2.91-.93-4l1.64-1.73,1.48,4.81Z"/><path d="M168.52,39.85c2.45-1.22,3.65-3.47,5.42-4.86h2.47a4,4,0,0,1,0,1.46,1.87,1.87,0,0,1-1,1,7.87,7.87,0,0,0-4.46,2.32C170.54,40.2,169.34,39.85,168.52,39.85Z"/><path d="M61.44,63.87c2.89,1.11,1.85,3.09,2.16,5C60.72,67.73,61.76,65.74,61.44,63.87Z"/></svg>