<svg xmlns="http://www.w3.org/2000/svg" viewBox="0 0 245.1 155.2"><title>splat</title><g id="splat1"><g id="Layer_1-2" data-name="Layer 1-2"><path d="M171,104.31c2.64,3.59,5.81,7.46,8.93,11l-1.28,2.75a3.69,3.69,0,0,0,3.31-1.47c2.62,2,5.1,4,8.55,3.71.52,1.84,2.27,1.8,3.23,2.6,3.72-.48,7-2.56,11-2.36.43-1.36,2.33-.88,3.45-1.67,5.53-3.9,11.11-7.88,14.34-13.88.78-1.45,2.27-1.11,3-2.15a4.23,4.23,0,0,1-1.79-3.6c.33-1.48,1.73-1.69,2.2-2.67-.13-1.07-1-2-.52-3.17.51-.32,1.31-.31,1.36-1.37-1-1.1-2.29-2.28-2.09-4.38a18.73,18.73,0,0,0,3.58-4.5c5.51-4,2.84-2.53,8-4.32l1.11,1.57,7.27-2a5.31,5.31,0,0,0-.54-1.9,7.31,7.31,0,0,0-1.71-1.2l-4.34-.2c-1.67,3.07.15.61-1.91,2.07-2.94-1.79-6.29-.76-9.45-1.09-3-.26-5.9-.37-8.17-2.24-.58-1.05-.23-2.37-1.76-3.21-2.8-.14-5.43-1.73-8.12-2.75-.57-1.43-.5-3-2-3.67l.73-.55c3.09-1.86,6.22-3.62,9.57-2.79l2.77-4.19c-.36-1.72-.61-3.34-2.8-3.66a15.13,15.13,0,0,1-5.39.66c-1.84,0-4.14-1.28-5.65,1,.13.43.41.88-.09,1.41-2.7,1-5.87,1.2-8.29,3.32a3,3,0,0,1-2.32.65c-2.53-.7-4.37-2.22-6.69-1.76-1.09-1.42-2.93-1.71-4.37-2.83l-3.8,1.07c-1.56-.55-2.55-1.76-4.07-1.74l-1,.51a27.69,27.69,0,0,1,6.7-6A4.87,4.87,0,0,0,184.5,46c.24-2,1.56-3.35,2.16-5.17l-.45-1.63,2.07-3.56-1.08-3.83,1.37-.79c-.23-1.91.68-3.87-.23-5.75.38-1.59,2-2.56,2.17-4.34s2.5-2.53,2.75-5.13c-3.17,1.83-6.31.42-9.15,1.72l-1.22-4.36c.69-.4,1.42-.62,1.43-.85,0-1.33,1.06-2.63.27-4S182.8,5.67,182,4.3c-2.47.53-2.33-2.37-4-2.85l-7.17,2-1.42,3.16c-3.71,2-6.34-.31-9-1.44a8.2,8.2,0,0,1-7.95,2.41c-1.6,1.6-3,3.57-5.79,3.36a19.78,19.78,0,0,0-2.09-1.1c-.24-.1-.61.17-1,.27-1.29,1.75,1.5,1.7,1.34,3-1.53,2.24-1.53,2.24-3.63,1.66l-8-8.89c-1,2.69,1.08,4.08,2.11,5.49,1.3,1.78,2.41,4.22,5.22,4.55.13.9.76,1.71.43,2.68-2.1.9-3.73,2.6-5.55,2.93-.24,4.57-3.66,8.15-2.33,12.36l-3.14.88c-.75.57.35,1.53-.69,2.18-1.47-2.56-1.29-5.71-2.8-8.09-1.61.21-1.66,1.37-2.35,2.27l2.22,7.9c-4-.36-7.69-4.68-11.1,0-3.69-.61-6.82-3-10.57-1.13-.09-2.12-1.67-2.86-2.54-4.06-.08-.14-.81.15-1.17.23-.57,1.38.87,2.46.22,3.78-.27,1.29-2.09,1.39-2.43,2.66l-6.38,1.8-4.83-2.61c-.56.15-.64,1.07-1.16,1.69-.26,1.19,1.21,2.27.32,3.54-2.13.27-3.43,2.07-5.48,2.7s-3.56,2.48-6,2.07L73.77,44A5.64,5.64,0,0,1,70,41c-1.86-3.59-5.5-5.86-7.06-9.66a1.77,1.77,0,0,0-2.34-.83,1.67,1.67,0,0,0-.5.33c.5,1.77,4.47,8.25,6.21,10a16.36,16.36,0,0,1,4.87,8.5c-1.9,1.61.65,3.08.07,4.65l-2.33,4c-2.12-.26-3.22,2.11-5.31,2.42-.46.06-.92.14-1.52.24l-.76-2.67c-.77-1,.42,5.41-.35,5.42-1.15-2.43-2.28-5.31-5.5-4.48l-4.74-2.29c-.32-.66-.15-1.6-1.13-2-2.66-.5-5.24-1.5-8-.9-1.51-1.56-2.86-2.92-4.17-4.37-1.16-1.32-1.78-6.16-3.58-5.88-.59,1.55-.76,3.5-1.5,4.8l-9.26,5.61L20.44,57l-4.32,1.22a12.6,12.6,0,0,0-5,7.14c-.43,2.11-2,2.94-3.36,4-.7.56-2,.14-2.45,1.23.93,4,.91,4-2.7,8.62C3,81-.54,83.76,1.61,84.87c3.14,1.62,2.11,6.42,2.74,8.33.78,2.36,2.44,5.65,1.93,7.89-.66,2.94,3.78,4.07,4.19,6.19A6.69,6.69,0,0,0,13,110.94c3.47,2.62,6.46,5.89,10.41,7.19l3.24,5a1.56,1.56,0,0,0,1.59-1.2,5.66,5.66,0,0,0,.25-1.29c4.17-.87,5.24-.67,9.29,1.36,2.53-.14,3.89-1.93,5.43-3.44,2,.17,3.65.44,5.55-1.35,1.36-1.3,1.76-8.73,4.18-8.69a6,6,0,0,1,.94.16l.86,3.05,2.64-5.7,1.87,6.66c4,2.1,4.5,7.3,8.74,8.75-.15,1.86-2.16,3-.78,4.83.64.42,1.27,1.23,2.39.91l1.2-1.21c1.06,2.21,3.07,3.92,3.1,6.63-2.89,2.25-6.46,4-7,8.16l-3.31,1.11.71.49c-.8.8-1.65,1.61-2.18,2.15l.89,3.18,4.33-1.21a24.79,24.79,0,0,1,6.89-8l1.25,1.72,5.12-1.44.15-1.75a1.19,1.19,0,0,1,1.65-.1h0c-.91,1.25-.8,2.32.5,3.42l3.22-.9,1.09,3.39c3.74-.21,7.14,1.17,10.69,1.81.93,4.65,5.84,3.84,8.49,6.15l3.83-3.49c1.57,1.3,3.29.77,4.54-.53s3-1.83,3.87-1.47c1.84.7,3.42-.6,5.12-.22,0,1.26.58,1.54,1.64,1.15.4-1.11.26-2.39,1.26-3.33,1.79-.28,3.6-1.79,5.45-.15,1.21,2.19.83,4.91,2.64,6.94,1.51,1.72,2.12,4.37,5.1,4.52,1.43-3.5.41-6.72-1.29-9.35-1-1.55-1.08-3.09-1.93-4.42,1.08-.69,1.89-1.21,2.87-.71.31.41.07,1.3,1,1.1.68-.93-.77-1.77.13-2.91,3.09,0,5.09-3.41,9.09-3,.81,1.77,2.89,2.62,4.89,3.58A25.94,25.94,0,0,1,162,144c2.23,2.35,5.3,3.6,7.83,5.54.11.08.54-.24,1.07-.5-.4-3.24-2.7-5.28-5.24-6.88a38.3,38.3,0,0,1-4.88-3.59c-2.37-2.05-4.72-4.16-6.08-6.8.37-2,2.41-2.37,3-4.07l-.93-3.32c-1.25,1-2.06,0-3-.47.37-1.28,1.68-2.29,1.54-2.8,1.62-4,6.44-4.54,6.74-8.84,1.23-.92,3.16-.45,4.32-1.91-.57-.59-.15-1.62-1.06-2l3.16-1.43Z"/><path d="M228.73,59.8c-.31,1.77,1.08,2.13,2.2,2.7l2.85-.8c.73-2.47,4.27-3.38,3.89-6.53l-3.5-.62C232.55,56.68,229.38,57.06,228.73,59.8Z"/><path d="M129.43,152.16l-1.09-3.87c-1.91-1.36-3.39-.57-4.63.08-.24,1.69.41,2.6,1.61,2.9,1.57.38,1,2.23,1.81,2.61C129,154.19,128.78,152.76,129.43,152.16Z"/><path d="M126.58,26.32C127,25,126.31,24,125.93,23c-1.29-.95-2.58-1.2-3.88.09l.57,2C123.88,25.12,124.63,27.07,126.58,26.32Z"/><path d="M203.53,123.59a4,4,0,0,0,2.27,1.22c-.23-.83,0-1.88-.93-2.26C204.06,122.54,203.47,122.7,203.53,123.59Z"/></g></g></svg>