<svg xmlns="http://www.w3.org/2000/svg" viewBox="0 0 245.1 155.2"><title>splat</title><g id="splat2"><path d="M45.87,132.25c-3-1.69-5.77-.11-8.59.14-.17,2.61-2.54,3.2-3.66,4.79-.54,1.62-2.37,2.51-2.69,4.36s-2.84,2.41-3.35,5.15c3.46-1.59,6.56.28,9.62-.79,2-1.3,4.22-2,5.59-4.13s5.36-.48,5.46-4.44C45.59,136.63,47.4,133.62,45.87,132.25Z"/><path d="M229.4,71.49a7.32,7.32,0,0,0-2.18-4.12c-3.31-3.18-6.07-7-10-8.84l-6.38,3.53c-.78-.12,2.06-8.84,1.81-8.09a8.75,8.75,0,0,0-.4,1.35c-4.39.43-9,9.27-13,6.66-2.63-.14-.63-7.58-2.38-6.15-2-.41-3.73-.89-5.86.8-1.55,1.21-3.82,2.67-6.32,2.34a7.25,7.25,0,0,1-1-.29l-.58-3.35-3.55-2-4.85,1.82c-4-2.73-3.91-8.28-8.15-10.31.34-2,2.54-3,1.28-5.05-.61-.52-1.18-1.46-2.38-1.25l-1.35,1.16c-.88-2.52-2.78-4.53-2.54-7.42,3.21-2.06,7.08-3.55,8.07-7.87l3.53-.8-.7-.62,2.49-2-.62-3.54-4.6.79a25.91,25.91,0,0,1-7.92,7.68l-1.11-2-5.42.94-.35,1.85h0a1.22,1.22,0,0,1-1.71-.09c1.07-1.19,1.1-2.38-.17-3.7l-3.42.59-.79-3.64c-3.9-.21-7.27-2.06-10.86-3.16-.51-5.05-5.65-4.75-8.16-7.51-1.5,1.13-2.76,2.08-4.31,3.27-1.5-1.56-3.44-1.07-4.75,0s-3.26,1.58-4.14,1.11c-1.82-.95-3.59.25-5.31-.35.13-1.35-.44-1.7-1.57-1.41-.53,1.13-.51,2.52-1.64,3.4-1.89.09-3.92,1.49-5.66-.48-1-2.46-.36-5.31-2-7.68-1.41-2-1.75-4.89-4.83-5.39-1.78,3.56-1.1,7.1.39,10.11.87,1.74.82,3.39,1.56,4.92-1.19.61-2.07,1.06-3,.42-.27-.47,0-1.39-1-1.29-.79.91.63,2-.42,3.08-3.19-.38-5.61,3.06-9.7,2.19-.63-2-2.71-3.13-4.64-4.39A28,28,0,0,1,71.6,10c-2.06-2.77-5-4.44-7.54-6.79-.1-.09-.57.2-1.15.41.11,3.52,2.31,5.92,4.73,7.91A44.2,44.2,0,0,1,72.33,16c2.24,2.46,4.45,5,5.59,8-.56,2-2.73,2.23-3.46,4l.63,3.66c1.39-.93,2.09.27,3.09.86-.52,1.32-2,2.23-1.88,2.8-2.06,4-7.08,4-7.85,8.63-1.37.82-3.31.11-4.65,1.53.52.69,0,1.73.88,2.27l1.72.13c.22,1.25,1,2.85.54,3.8-.72,1.49,0,3-.65,4.27l-4.58.79L63,64.33c-1.24,1.3-4.32-.06-4.57,3.6.25,2.25,3.14.53,4.41,1.45.46,1.64-.5,1.94-1.42,1.82C61,73.09,62.06,74,62.88,75c-.64,1.42-.46,3.23-1.73,4.37-1.64,1.51-3.41,2.86-5.13,4.2,0,1.26-1.18,2.16-1.69,3s-1.85.75-2.14,1.84c-2,.35-4.16.33-5.95,1.14a32.36,32.36,0,0,0-5,2.67c-1.39,1-3.56.77-5.39,1.09a117.9,117.9,0,0,1-16.16.6C19,93,19.17,92,18.89,91c-.79,0-1.85.83-2.19-.66C13.35,92,10,93.48,6.55,92.22L3.27,96.35c.25,1.86.29,3.58,2.52,4.23a15.06,15.06,0,0,1,5.56-.11c1.9.2,4.15,1.82,5.94-.44,0-.48-.33-1,.24-1.48,3-.81,6.21-.6,8.9-2.58a3,3,0,0,1,2.46-.43c2.56,1.09,4.92,0,7.36-.23,1,1.6,2.87,2.14,4.24,3.51l4-.7c1.57.77,2.44,2.16,4,2.32,2.76-.31,5.41.27,8.09.55,5,.53,9.36,2.91,14.12,4.06a4.29,4.29,0,0,1,1.37.8c1.33,2-.73,3.53.12,5.31,2.86,2.94,6.54,4.4,10.85,5.31l3,3.94c.91,1.28,2.9-1.16,3.47,1a3,3,0,0,1,1.23.34,3,3,0,0,0-1.22-.32l.69,4,2-.34c-1,1.7-.43,3.45-.13,5.19l1.55-.27c.82-.52-.22-1.66.92-2.23,1.25,2.83.76,6.22,2.07,8.92,1.7-.05,1.86-1.26,2.66-2.15l-1.5-8.66c4.07.85,7.49,5.87,11.54,1.25,3.72,1.08,6.73,3.91,10.8,2.42-.13,2.26,1.44,3.23,2.2,4.61.09.15.87-.05,1.25-.11.71-1.41-.67-2.72.14-4,.42-1.31,2.31-1.21,2.77-2.55l6.79-1.18,4.73,3.34c.59-.09.76-1.07,1.35-1.67.39-1.25-1-2.59,0-3.82,2.22,0,3.84-1.8,5.93-2.23s3.93-2.23,6.37-1.51l.1.61h0l.8,4.58a6.15,6.15,0,0,1,3.62,3.71c1.56,4,5.09,6.87,6.32,11.08a2.08,2.08,0,0,0,.31.59,1.84,1.84,0,0,0,2.56.29c-.34-2-3.78-9.31-5.4-11.36a17.8,17.8,0,0,1-4-8.62h.07c2.11-1.5-.37-3.35.39-5l2.81-4c2.19.52,3.53-1.87,5.74-2,.47,0,.94,0,1.59-.07l.51,2.93c.71,1.13,4.8-8.55,5.6-8.49.95,2.72,1.82,5.94,5.22,5.41,1.84,1.19,3.25,2.09,4.67,3,.27.74,0,1.72,1,2.24,2.71.84,5.27,2.22,8.19,1.87,1.39,1.84,2.7,3.44,3.88,5.14,1.06,1.53,2.26,2.63,4.14,2.54.76-1.57-.68-2.88.21-4.19l12.1-2.09,1.84-2.46,4.58-.79a13.28,13.28,0,0,0,5.81-7c.68-2.24,2.33-2.9,3.87-3.91.77-.52,2.07.09,2.65-1.05-.56-4.32-.53-4.39,3.61-8.84C233.61,86.68,230.14,79.4,229.4,71.49Z"/><path d="M96.39,142.93c-.53,1.31,0,2.51.33,3.67,1.27,1.13,2.53,1.55,4,.34l-.39-2.24C99,144.55,98.42,142.36,96.39,142.93Z"/><path d="M26.59,30.62a4.29,4.29,0,0,0-2.22-1.56c.13.92-.23,2,.74,2.52C25.93,31.64,26.56,31.53,26.59,30.62Z"/></g></svg>